<svg xmlns="http://www.w3.org/2000/svg" width="2000" height="1500"><path d="M0 0h2000v1500H0z"/><svg viewBox="0 0 320 360" data-background-color="#f9f9f9" height="2250" width="2000" xmlns="http://www.w3.org/2000/svg" xmlns:xlink="http://www.w3.org/1999/xlink" transform="matrix(.44444 0 0 .44444 555.556 250)"><svg viewBox="0 0 320 360" height="360" width="320" id="tight-bounds"><svg/><svg viewBox="0 0 320 360" height="360" width="320"><path d="m20.961 227.22 3.726 4.658-1.863-6.056c-.466-2.795-3.726.466-1.863 1.398m4.192-2.795c1.397 2.329 2.795 4.658 2.795 6.987 0 3.261 2.795 4.658 5.123 5.589-3.261-3.726-5.124-13.974-7.918-12.576M204.017 26.929c7.918 0 15.371-.932 23.756.931 20.495 5.124 37.729 15.371 49.374 29.811l32.606 52.169c1.397 13.042 4.192 27.482 3.726 43.319 3.261 0 2.795-4.658 6.521-5.59-3.726 9.316-5.59 20.961-6.521 34.469-2.329-7.453 0-18.632.466-24.687-3.261 5.124-5.124 1.397-5.124-.932.466-3.726-1.397-3.261-2.795-4.658-5.124-4.658-8.384-9.782-12.11-17.7 2.329-6.055 2.795-14.905-4.658-19.563-2.329-1.397-5.124-3.726-6.521-7.453-1.863-5.124-5.124-11.179-4.193-19.097.466-2.329-6.987 5.124-11.179 1.863-18.166-12.576-36.332-27.016-58.224-39.127-11.645 0-20.029-4.192-24.221-9.316-3.726-4.658-.932-10.713 4.658-11.179 3.261 0 6.987-.932 9.782.932.466-1.863 2.329-4.192 4.657-4.192m-46.113-10.714.932.466c4.658.932 6.987 7.453 12.11 5.124 0 3.261.466 6.521-.466 8.85-1.397 3.726-5.59 3.726-8.85 3.726-31.208-1.863-49.374 11.179-68.471 22.358-5.124 3.261-10.713 5.59-14.906 9.782-20.029 18.632-41.921 35.866-47.045 70.335l-4.192 38.195c-.466 4.192-5.124 8.384-4.192 13.508l3.26 22.824c-3.261-3.261-5.124.932-4.192 2.795.466 1.397 2.329 6.055 5.124 1.863 3.726 6.987 7.453 20.495 12.576 26.55 15.837 18.632 36.332 35.4 53.101 52.169 4.192-.932 7.453-.932 8.384-3.727 1.397 2.795-1.397 5.59-3.726 6.056 7.453 4.658 15.837 8.85 27.016 9.781a216.689 216.689 0 0 1 40.524 6.522c6.521-1.863 13.042-2.795 20.029-3.261 2.329 0 3.726-3.726 6.521-4.658l.466-4.658c2.795 4.192 2.329-1.397.466-4.192 3.261 2.795 4.192 5.124 5.589 6.987 0-1.397 3.726-6.521 3.727-.466l.931-6.055c1.397-.932 1.863 5.124 3.261.931 1.397-4.192 4.192-.932 6.987-2.329-.932 1.863-.466 5.59 2.794 3.261l3.727-3.261c2.329 5.59 6.055 3.261 7.918 2.329 20.495-13.042 40.99-28.413 60.553-43.784l-.466 6.055 2.329-7.453c2.329 2.329 4.192.466 5.124-.931 2.795-4.658 6.521-9.316 12.577-13.508-7.453 20.029-16.303 35.866-27.482 48.908l-4.658 5.59c0 3.261-.932 7.453-4.658 7.918-1.863.466-5.59-.932-8.384 1.863-1.397 1.863 3.261 5.59-.466 2.795-3.261-2.329-6.521 0-10.248.932-2.795.932 1.863 3.726 2.795 5.589.932 1.863 1.863 3.726 1.398 6.056l-5.124-5.59c-6.055 3.261-9.782 9.316-14.906 13.974-2.329 1.863-1.397 5.124-1.397 7.918-3.261 0-6.987-.932-8.85.932-1.397 1.863-.932 4.658-.932 7.453-4.658-.466-5.124-7.453-9.315-6.056-4.192.932-8.85 1.397-12.577 3.727 2.795 5.59-4.658 2.329-3.726 3.26-6.987-4.192-13.042-7.453-20.495-4.658-15.837-5.124-35.4-2.795-49.84-.931 0-2.329.466-4.658-.466-5.124-.932 2.329-3.726 1.397-3.26 1.397-8.85-6.055-17.7-9.782-27.016-14.905-8.384.932-16.303-3.261-18.632-5.59-6.521-6.055-13.974-2.795-20.029-4.192-13.042-3.261-17.7-16.769-19.098-26.084-.932-4.658-4.658-6.521-6.055-6.056-6.055-19.563-15.371-37.263-22.824-55.429-1.863-4.658-1.397-9.316-1.397-14.44 2.329.932 4.658.466 4.192-2.794C11.645 189.491 6.056 177.846 0 166.667c3.261-15.837 3.726-34.469 11.179-48.443 6.521-12.576 18.632-19.098 27.016-29.811 2.795-3.726 2.795-8.85 5.59-12.11 9.316-9.316 18.632-19.098 28.879-27.482 4.658-3.726 10.247 0 17.234-1.397 2.329-8.384 11.645-15.837 20.495-13.508 3.726.932 11.179-8.85 13.508-9.782 3.726-1.397 1.863 3.726 1.863 6.987 8.85-6.987 20.961-10.713 32.14-14.906" fill="#fff" stroke-miterlimit="10" font-family="none" font-weight="none" font-size="none" text-anchor="none" style="mix-blend-mode:normal" data-fill-palette-color="tertiary"/><svg viewBox="0 0 192 179.464" height="179.464" width="192" transform="translate(64 90.268)"><svg viewBox="0 0 192 179.464" height="179.464" width="192"><svg viewBox="0 0 192 179.464" height="179.464" width="192"><svg viewBox="0 0 192 179.464" height="179.464" width="192"><g id="textblocktransform"><svg viewBox="0 0 192 179.464" height="179.464" width="192" id="textblock"><svg viewBox="0 0 192 179.464" height="179.464" width="192"><svg width="192" viewBox="-3.25 -38.45 59.2 55.4" height="179.464" data-palette-color="#030303"><path d="M22.8-30.45H12q-1.95 0-3.17.72-1.23.73-1.93 2.1-.7 1.38-1.2 3.53-1.2 0-2.37-.13-1.18-.12-2.08-.57.5-2.05.83-4.6.32-2.55.32-4.55 1.9.05 3.95.1 2.05.05 4.68.05h6.27q3.35 0 5.95-.03 2.6-.02 4.75-.05 2.15-.02 4-.07 0 2 .25 4.42.25 2.43.75 4.68-.9.4-2.05.57-1.15.18-2.5.18-.5-3.3-1.75-4.83-1.25-1.52-3.9-1.52ZM12.75-8.6v-23.55h8.65V-8.6q0 2.15.35 3.25t1.35 1.52q1 .43 2.95.53.2.6.3 1.57.1.98.1 1.88Q25 .05 22.68.03 20.35 0 17.55 0 15.7 0 13.7.03q-2 .02-3.67.05Q8.35.1 7.25.15q0-.85.18-1.85.17-1 .37-1.6 1.95-.1 3.03-.53 1.07-.42 1.5-1.52.42-1.1.42-3.25Zm35-16.6v18.6q0 3.45-.48 6.27-.47 2.83-1.77 5.11-1.3 2.27-3.75 4.17t-6.45 3.5q-.75-.55-1.1-1.35-.35-.8-.45-1.75Q35.6 8 36.77 6.53q1.18-1.48 1.75-3.68.58-2.2.58-5.6V-25.2q0-2.15-.28-3.25-.27-1.1-.95-1.5-.67-.4-2.07-.55-.2-.65-.3-1.63-.1-.97-.1-1.82.95.05 2.35.1 1.4.05 2.9.05h2.75q1.95 0 4.25-.03 2.3-.02 3.8-.12 0 1-.1 1.85-.1.85-.3 1.6-1.45.1-2.18.6-.72.5-.92 1.6-.2 1.1-.2 3.1Z" opacity="1" fill="#fff" class="wordmark-text-0" data-fill-palette-color="primary" id="text-0"/></svg></svg></svg></g></svg></svg></svg></svg></svg></svg></svg></svg>